<?xml version="1.0" encoding="utf-8"?>
<!-- Generator: Adobe Illustrator 25.0.1, SVG Export Plug-In . SVG Version: 6.00 Build 0)  -->
<svg version="1.0" id="Layer_1" xmlns="http://www.w3.org/2000/svg" xmlns:xlink="http://www.w3.org/1999/xlink" x="0px" y="0px"
	 viewBox="0 0 827 534" style="enable-background:new 0 0 827 534;" xml:space="preserve">
<style type="text/css">
	.st0{fill:#1C1E1D;}
	.st1{fill:none;}
</style>
<g id="编组">
	<g>
		<path id="Fill-77" class="st0" d="M188.4,201.8c-10.3-8.5-24.4-12.7-42.4-12.7h-44.8v6.3h44c15.3,0,29.1,3.1,37.6,10.5
			s14.8,18.2,14.8,31.6c0,13-5.6,22.5-14.3,29.8s-24.5,10.5-40.2,10.5H92.6v6.3h50.9c18.9,0,33.7-4.1,44.4-12.3
			c10.6-8.2,16-19.8,16-34.7C203.9,221.9,198.7,210.2,188.4,201.8"/>
	</g>
	<g>
		<path id="Fill-79" class="st0" d="M184.6,210.8c-6.4-4.9-13.7-8.8-34.5-8.8h-34.6v6.1c0,0,15.5-0.2,33.8,0
			c17.7,0.2,24.2,2.2,30.2,6.6c7.6,5.6,12.4,12.6,12.4,22.3c0,9.4-4.8,16-12.5,21.7c-7.8,5.8-19.8,5.8-24.7,6c-1.8,0-25.7,0-25.7,0
			v6.1c0,0,11.8,0.2,19.2,0c16.8-0.4,26.8-1.4,36.1-8.3c8.7-6.5,13.3-15,13.3-25.8C197.6,222.5,190.4,215.4,184.6,210.8"/>
	</g>
	<g>
		<path id="Fill-80" class="st0" d="M181.5,218.9c-4.8-3-9-5-28.9-5h-24.9v4h24.2c17.6,0,24.2,3.1,26.3,4.4c4,2.4,9.2,6.4,9.2,14.4
			c0,5.1-3,11.6-7.5,14.1c-4.1,2.3-11.6,4.4-24.7,4.4H74v4h81.4c15.9,0,21.3-1.8,26.9-4.9s9.4-9.5,9.4-17.6
			C191.7,227.5,186.6,222.1,181.5,218.9"/>
	</g>
</g>
<path id="Fill-81" class="st0" d="M197.3,263.2c-10.3-8.5-24.4-12.7-42.4-12.7h-30v6.3H154c15.3,0,29.1,3.2,37.6,10.5
	s14.9,18.2,14.9,31.6c0,13-5.5,22.5-14.3,29.8s-24.5,10.5-40.2,10.5h-50.5v6.3h50.9c18.9,0,33.7-4.1,44.4-12.3s16-19.8,16-34.7
	C212.7,283.4,207.6,271.7,197.3,263.2"/>
<path id="Fill-82" class="st0" d="M193.5,272.2c-6.4-4.8-13.7-8.8-34.5-8.8h-47v6.1c0,0,27.9-0.2,46.2,0c17.7,0.2,24.2,2.2,30.2,6.6
	c7.6,5.6,12.4,12.6,12.4,22.3c0,9.4-4.8,16-12.5,21.7c-7.8,5.8-19.8,5.8-24.7,6c-1.8,0-25.7,0-25.7,0v6.1c0,0,11.9,0.2,19.2,0
	c16.8-0.4,26.8-1.4,36.1-8.3c8.7-6.5,13.3-15,13.3-25.8C206.5,284,199.4,276.8,193.5,272.2"/>
<polygon id="Fill-83" class="st0" points="122,293 166.1,293 166.1,289.6 122,289.6 "/>
<polygon id="Fill-84" class="st0" points="140.2,304.9 165.8,304.9 165.8,302 140.2,302 "/>
<polygon id="Fill-85" class="st0" points="101.5,293 114.5,293 114.5,289.6 101.5,289.6 "/>
<polygon id="Fill-86" class="st0" points="93.3,305.1 133,305.1 133,301.7 93.3,301.7 "/>
<polygon id="Fill-87" class="st0" points="103.1,217.6 118.6,217.6 118.6,214.8 103.1,214.8 "/>
<polygon id="Fill-88" class="st0" points="92.4,240.4 127.7,240.4 127.7,237.2 92.4,237.2 "/>
<polygon id="Fill-89" class="st0" points="93.3,331.8 130.6,331.8 130.6,327.8 93.3,327.8 "/>
<polygon id="Fill-90" class="st0" points="84.1,345.1 93.4,345.1 93.4,339.2 84.1,339.2 "/>
<polygon id="Fill-91" class="st0" points="107.3,230.4 165.9,230.4 165.9,227.2 107.3,227.2 "/>
<polygon id="Fill-92" class="st0" points="136.6,240.4 164.8,240.4 164.8,237.2 136.6,237.2 "/>
<path id="Fill-93" class="st0" d="M190.4,280.9c-4.8-2.9-9-4.9-28.9-4.9h-31.6v3.9h31c17.6,0,24.3,3,26.3,4.2
	c3.9,2.3,9.2,6.1,9.2,13.9c0,5-3,11.2-7.5,13.6c-4.1,2.2-11.6,4.2-24.7,4.2H82.9v3.9h81.4c15.9,0,21.3-1.7,26.9-4.7s9.3-9.1,9.3-17
	C200.6,289.3,195.5,284.1,190.4,280.9"/>
<path id="Fill-94" class="st0" d="M273.8,272.2v35.7h19.5c8.4,0,15-1.6,19.6-4.8c4.5-2.9,7.1-7.9,7-13.3c0-11.7-9.9-17.6-29.6-17.6
	H273.8z M273.8,229.7v32h14.7c7.9,0,14-1.5,18.5-4.6c4.4-2.8,7-7.8,6.8-13c0-9.6-7.8-14.5-23.5-14.5L273.8,229.7z M259.4,318.4
	v-99.2h34.9c10.6,0,19,2.1,25.2,6.3c6.2,4.2,9.3,9.7,9.3,16.4c0.1,5.4-1.9,10.7-5.6,14.7c-3.8,4.2-8.9,7.1-15.5,8.9v0.3
	c8.3,0.8,14.9,3.3,19.8,7.6c4.9,4.1,7.6,10.2,7.4,16.6c0,8.5-3.8,15.3-11.3,20.6c-7.5,5.3-17,7.9-28.5,7.9H259.4z"/>
<path id="Fill-95" class="st0" d="M350.9,318.4h14v-70.8h-14V318.4z M358,229.5c-2.3,0.1-4.6-0.7-6.4-2.1c-1.7-1.2-2.7-3.2-2.6-5.2
	c0-2.1,1-4.1,2.6-5.3c1.8-1.4,4.1-2.2,6.4-2.1c2.4-0.1,4.7,0.7,6.5,2.1c2.9,2.1,3.5,6.1,1.5,9c-0.4,0.6-0.9,1.1-1.5,1.5
	C362.7,228.9,360.4,229.6,358,229.5L358,229.5z"/>
<path id="Fill-96" class="st0" d="M426.8,317.7c-3.3,1.5-7.7,2.2-13.1,2.2c-15.3,0-23-6.9-23-20.8v-41.9h-15v-9.7h15v-17.3l14-3.7
	v21h22v9.7h-22v39.9c0,4.7,1,8.1,3,10.2s5.3,3,9.9,3c3.2,0.1,6.4-0.7,9.1-2.4L426.8,317.7"/>
<path id="Fill-97" class="st0" d="M554.1,318.4h-13.1v-61.2c0.1-5.9,0.4-11.9,1.1-17.8h-0.3c-0.8,3-2,6-3.4,8.8l-38.5,70.1h-6.5
	l-38.4-69.6c-1.5-3-2.6-6.1-3.4-9.4h-0.3c0.5,5.9,0.7,11.9,0.6,17.9v61.1h-12.7v-91.2h17.5l34.6,63.6c2,3.5,3.8,7.2,5.2,11h0.5
	c2.3-5,4.1-8.7,5.4-11.2l35.3-63.4h16.5V318.4"/>
<path id="Fill-98" class="st0" d="M625.3,282.5l-21.1,2.4c-6.5,0.7-11.4,2-14.7,3.9c-3.3,1.9-5,5.2-5,9.9c0,3.4,1.7,6.6,4.6,8.5
	c3,2.2,7.1,3.3,12.2,3.3c7,0,12.7-2,17.2-5.9c4.4-3.7,6.9-9.2,6.8-15L625.3,282.5z M639.3,318.4h-14v-11.1H625
	c-6.1,8.5-15.1,12.7-26.9,12.7c-8.7,0-15.5-1.9-20.5-5.6c-4.8-3.4-7.5-9-7.4-14.9c0-13.2,9.6-20.9,28.9-23.1l26.2-3c0-12-6-18-18-18
	c-10.2-0.1-20.1,2.9-28.5,8.7v-11.6c8.6-4.4,18.5-6.6,29.7-6.6c20.6,0,30.8,8.8,30.8,26.4L639.3,318.4L639.3,318.4z"/>
<path id="Fill-99" class="st0" d="M704.3,259c-2.5-1.5-6-2.3-10.6-2.3c-5.8-0.1-11.3,2.4-15,6.9c-4,4.6-6,10.8-6,18.7v36.1h-14
	v-70.8h14v14.6h0.3c1.8-4.7,5-8.8,9.2-11.7c4-2.8,8.8-4.2,13.8-4.2c2.8-0.1,5.7,0.2,8.4,1L704.3,259"/>
<path id="Fill-100" class="st0" d="M753.1,317.7c-3.3,1.5-7.7,2.2-13.1,2.2c-15.3,0-23-6.9-23-20.8v-41.9h-15v-9.7h15v-17.3l14-3.7
	v21h22v9.7h-22v39.9c0,4.7,1,8.1,3,10.2s5.3,3,9.9,3c3.2,0.1,6.4-0.7,9.1-2.4L753.1,317.7"/>
<rect x="55" y="163" class="st1" width="717" height="208"/>
</svg>
