<svg width="20" height="22" viewBox="0 0 20 22" fill="none" xmlns="http://www.w3.org/2000/svg">
<g clip-path="url(#clip0_329_525)">
<path d="M2.92997 18.827H14.6003L14.0429 16.9501L15.3762 18.1401L16.5981 19.279L18.8243 21.2137V2.89185C18.7687 1.75296 17.8258 0.785156 16.6571 0.785156L2.93406 0.78771C1.76613 0.78771 0.818359 1.75722 0.818359 2.89611V16.7194C0.818359 17.9205 1.76449 18.827 2.92997 18.827ZM11.563 5.62247L11.536 5.63269L11.5458 5.62247H11.563ZM5.31739 6.70263C6.81762 5.56714 8.20817 5.62162 8.20817 5.62162L8.32029 5.73653C6.48451 6.19192 5.65214 7.04481 5.65214 7.04481C5.65214 7.04481 5.87476 6.9316 6.26352 6.75881C8.73607 5.7476 11.4361 5.8208 13.9357 7.10099C13.9357 7.10099 13.1017 6.30342 11.3789 5.79271L11.5311 5.63694C11.7693 5.63779 13.0297 5.68376 14.3785 6.70944C14.3785 6.70944 15.8877 9.39069 15.8877 12.6848C15.8378 12.6218 14.9514 14.1029 12.6704 14.154C12.6704 14.154 12.2841 13.6994 12.0091 13.3028C13.3431 12.9044 13.8424 12.1077 13.8424 12.1077C13.4045 12.3945 13.0051 12.5648 12.681 12.735C12.1826 12.9631 11.6833 13.0755 11.1849 13.1904C8.82446 13.5888 7.49939 12.9223 6.24715 12.3937L5.8191 12.1673C5.8191 12.1673 6.31754 12.964 7.59842 13.3623C7.26204 13.7616 6.92893 14.2152 6.92893 14.2152C4.64872 14.1591 3.81717 12.678 3.81717 12.678C3.81717 9.37878 5.31739 6.70263 5.31739 6.70263Z" fill="#FF8C8C"/>
<path d="M11.7101 11.6558C12.292 11.6558 12.7659 11.1451 12.7659 10.5152C12.7659 9.88962 12.2945 9.37891 11.7101 9.37891V9.38146C11.1306 9.38146 10.6559 9.89047 10.6543 10.5204C10.6543 11.1451 11.1282 11.6558 11.7101 11.6558Z" fill="#FF8C8C"/>
<path d="M7.9308 11.6558C8.51272 11.6558 8.98661 11.1451 8.98661 10.5152C8.98661 9.88962 8.516 9.37891 7.93408 9.37891L7.9308 9.38146C7.34888 9.38146 6.875 9.89047 6.875 10.5204C6.875 11.1451 7.34888 11.6558 7.9308 11.6558Z" fill="#FF8C8C"/>
</g>
<defs>
<clipPath id="clip0_329_525">
<rect width="19.6429" height="20.4286" fill="white" transform="translate(0 0.785156)"/>
</clipPath>
</defs>
</svg>
