<svg width="23" height="22" viewBox="0 0 23 22" fill="none" xmlns="http://www.w3.org/2000/svg">
<path d="M22.2312 6.46808C22.1796 5.29913 21.9906 4.49549 21.7197 3.79912C21.4403 3.05995 21.0105 2.39817 20.4473 1.84802C19.8971 1.28932 19.2308 0.855181 18.5 0.580193C17.7995 0.309403 16.9999 0.12037 15.8307 0.0688308C14.6528 0.0129267 14.2789 -1.23485e-09 11.2914 -9.71186e-10C8.3039 -7.07524e-10 7.92996 0.0129267 6.75642 0.0644659C5.58725 0.116005 4.78346 0.305206 4.08713 0.575828C3.34764 0.855181 2.68573 1.28495 2.13548 1.84802C1.57667 2.39817 1.14262 3.06431 0.867413 3.79493C0.596571 4.49549 0.407502 5.29477 0.355953 6.46371C0.300039 7.64139 0.287109 8.01526 0.287109 11.0022C0.287109 13.9891 0.300039 14.363 0.351588 15.5363C0.403137 16.7052 0.592373 17.5089 0.863215 18.2052C1.14262 18.9444 1.57667 19.6062 2.13548 20.1563C2.68573 20.715 3.35201 21.1492 4.08276 21.4242C4.78346 21.695 5.58289 21.884 6.75223 21.9355C7.9256 21.9872 8.2997 22 11.2872 22C14.2747 22 14.6486 21.9872 15.8222 21.9355C16.9913 21.884 17.7951 21.695 18.4915 21.4242C19.9703 20.8525 21.1394 19.6836 21.7112 18.2052C21.9818 17.5047 22.1711 16.7052 22.2226 15.5363C22.2742 14.363 22.2871 13.9891 22.2871 11.0022C22.2871 8.01526 22.2827 7.64139 22.2312 6.46808ZM20.2497 15.4503C20.2023 16.5248 20.0218 17.105 19.8714 17.4918C19.5016 18.4502 18.7408 19.2108 17.7822 19.5805C17.3953 19.7309 16.8108 19.9114 15.7404 19.9586C14.5798 20.0103 14.2317 20.023 11.2958 20.023C8.35982 20.023 8.00737 20.0103 6.85096 19.9586C5.77632 19.9114 5.19602 19.7309 4.80915 19.5805C4.33211 19.4042 3.89789 19.1249 3.54544 18.7596C3.18007 18.4028 2.90066 17.9731 2.72435 17.4961C2.5739 17.1093 2.3934 16.5248 2.34621 15.4547C2.2945 14.2943 2.28174 13.9461 2.28174 11.0107C2.28174 8.07536 2.2945 7.72298 2.34621 6.56696C2.3934 5.49253 2.5739 4.91234 2.72435 4.52554C2.90066 4.04843 3.18007 3.61446 3.54981 3.26191C3.90645 2.8966 4.33631 2.61725 4.81351 2.44114C5.20038 2.29072 5.78505 2.11025 6.85532 2.06291C8.01593 2.01137 8.36418 1.99844 11.3 1.99844C14.2403 1.99844 14.5883 2.01137 15.7448 2.06291C16.8194 2.11025 17.3997 2.29072 17.7866 2.44114C18.2636 2.61725 18.6978 2.8966 19.0503 3.26191C19.4156 3.61865 19.6951 4.04843 19.8714 4.52554C20.0218 4.91234 20.2023 5.49673 20.2497 6.56696C20.3012 7.72735 20.3141 8.07536 20.3141 11.0107C20.3141 13.9461 20.3012 14.2899 20.2497 15.4503Z" fill="#FF8C8C"/>
<path d="M11.2932 5.35156C8.17257 5.35156 5.64062 7.88286 5.64062 11.0031C5.64062 14.1233 8.17257 16.6546 11.2932 16.6546C14.414 16.6546 16.9458 14.1233 16.9458 11.0031C16.9458 7.88286 14.414 5.35156 11.2932 5.35156ZM11.2932 14.6691C9.2687 14.6691 7.62652 13.0274 7.62652 11.0031C7.62652 8.97878 9.2687 7.33708 11.2932 7.33708C13.3179 7.33708 14.9599 8.97878 14.9599 11.0031C14.9599 13.0274 13.3179 14.6691 11.2932 14.6691Z" fill="#FF8C8C"/>
<path d="M18.4871 5.12796C18.4871 5.85656 17.8962 6.44733 17.1673 6.44733C16.4385 6.44733 15.8477 5.85656 15.8477 5.12796C15.8477 4.3992 16.4385 3.80859 17.1673 3.80859C17.8962 3.80859 18.4871 4.3992 18.4871 5.12796Z" fill="#FF8C8C"/>
</svg>
