<svg width="636" height="261" viewBox="0 0 636 261" fill="none" xmlns="http://www.w3.org/2000/svg">
<path d="M289.47 202.25L86.74 153.03L83.91 159.14C83.663 159.675 83.5375 160.259 83.5425 160.849C83.5476 161.439 83.683 162.02 83.9391 162.552C84.1953 163.083 84.5657 163.551 85.024 163.923C85.4823 164.294 86.0171 164.559 86.59 164.7L288.59 213.76C289.36 213.942 290.168 213.891 290.909 213.614C291.651 213.337 292.294 212.847 292.756 212.204C293.219 211.562 293.48 210.797 293.508 210.005C293.535 209.214 293.327 208.433 292.91 207.76L289.47 202.25Z" fill="#202124"/>
<path d="M273.21 176.65L95.75 133.56L90.88 144.09L282 190.49L273.21 176.65Z" fill="#202124"/>
<path d="M256.96 151.05L104.76 114.1L99.89 124.62L265.75 164.89L256.96 151.05Z" fill="#202124"/>
<path d="M240.71 125.45L113.78 94.6298L108.9 105.16L249.49 139.3L240.71 125.45Z" fill="#202124"/>
<path d="M224.45 99.8498L122.79 75.1698L117.92 85.6898L233.24 113.7L224.45 99.8498Z" fill="#202124"/>
<path d="M208.2 74.2498L131.8 55.6998L126.93 66.2298L216.99 88.0998L208.2 74.2498Z" fill="#202124"/>
<path d="M191.94 48.6598L140.82 36.2398L135.94 46.7698L200.73 62.4998L191.94 48.6598Z" fill="#202124"/>
<path d="M175.69 23.0498L149.83 16.7798L144.96 27.2998L184.48 36.8998L175.69 23.0498Z" fill="#202124"/>
<path d="M255.73 27.2398L196.93 38.1398L204.1 50.9898L238.17 44.6898C238.976 44.5404 239.808 44.6273 240.566 44.94C241.323 45.2527 241.974 45.7778 242.441 46.452C242.907 47.1263 243.168 47.921 243.192 48.7403C243.217 49.5596 243.005 50.3686 242.58 51.0698L130.65 235.49C130.284 236.094 129.772 236.598 129.162 236.954C128.551 237.311 127.861 237.509 127.155 237.531C126.448 237.553 125.747 237.397 125.116 237.079C124.485 236.761 123.943 236.291 123.54 235.71L22.54 90.7098C22.1402 90.1316 21.8904 89.463 21.8131 88.7643C21.7359 88.0656 21.8335 87.3587 22.0973 86.7071C22.3611 86.0555 22.7828 85.4797 23.3244 85.0316C23.866 84.5834 24.5106 84.277 25.2 84.1398L114.79 67.5498L123.53 51.7598L8.53001 73.0398C6.95101 73.3317 5.47046 74.015 4.2239 75.0272C2.97734 76.0394 2.00459 77.3481 1.3947 78.8336C0.784805 80.319 0.55726 81.9337 0.732892 83.5298C0.908523 85.1259 1.48172 86.6525 2.40001 87.9698L119.7 256.21C120.614 257.522 121.841 258.586 123.27 259.304C124.699 260.022 126.285 260.371 127.883 260.321C129.482 260.27 131.042 259.821 132.423 259.014C133.804 258.207 134.961 257.068 135.79 255.7L265.68 41.6998C266.651 40.1188 267.142 38.2894 267.093 36.4345C267.043 34.5795 266.456 32.779 265.401 31.252C264.347 29.7251 262.871 28.5376 261.154 27.8341C259.437 27.1306 257.553 26.9415 255.73 27.2898" fill="#202124"/>
<path d="M156.69 1.86978L153.97 7.86978L168.22 11.3298L162.41 1.57978C162.108 1.07201 161.673 0.656706 161.152 0.379059C160.63 0.101412 160.043 -0.0279502 159.453 0.00504358C158.863 0.0380374 158.294 0.232124 157.807 0.566191C157.319 0.900259 156.933 1.36151 156.69 1.89978" fill="#202124"/>
<path d="M381.72 152.456H376.428L407.676 103.652H418.848V158H407.676V118.52L410.364 119.276L385.416 158H372.9L347.952 119.444L350.64 118.688V158H339.468V103.652H350.64L381.72 152.456ZM431.753 158V103.652H468.629C472.829 103.652 476.469 104.24 479.549 105.416C482.685 106.536 485.121 108.328 486.857 110.792C488.593 113.2 489.461 116.308 489.461 120.116C489.461 122.692 489.013 124.876 488.117 126.668C487.221 128.46 485.961 129.916 484.337 131.036C482.769 132.156 480.949 133.024 478.877 133.64C476.805 134.2 474.593 134.564 472.241 134.732L471.065 134.06C474.985 134.116 478.205 134.452 480.725 135.068C483.245 135.628 485.121 136.692 486.353 138.26C487.641 139.772 488.285 142.04 488.285 145.064V158H477.113V145.82C477.113 143.748 476.749 142.152 476.021 141.032C475.293 139.856 473.977 139.044 472.073 138.596C470.225 138.148 467.537 137.924 464.009 137.924H442.925V158H431.753ZM442.925 129.188H468.629C471.765 129.188 474.145 128.432 475.769 126.92C477.449 125.408 478.289 123.364 478.289 120.788C478.289 118.324 477.449 116.448 475.769 115.16C474.145 113.872 471.765 113.228 468.629 113.228H442.925V129.188ZM510.98 126.08H554.072V135.404H510.98V126.08ZM552.224 103.652H563.396V158H552.224V103.652ZM501.152 103.652H512.324V158H501.152V103.652ZM576.292 158V103.652H607.624C614.904 103.652 620.42 104.884 624.172 107.348C627.98 109.756 629.884 113.368 629.884 118.184C629.884 121.264 629.128 123.7 627.616 125.492C626.104 127.228 623.948 128.516 621.148 129.356C618.404 130.196 615.156 130.728 611.404 130.952L611.74 130.364C614.484 130.42 617.06 130.616 619.468 130.952C621.932 131.288 624.088 131.904 625.936 132.8C627.784 133.696 629.24 134.956 630.304 136.58C631.368 138.148 631.9 140.22 631.9 142.796C631.9 146.156 631.004 148.956 629.212 151.196C627.42 153.38 624.928 155.032 621.736 156.152C618.544 157.272 614.848 157.888 610.648 158H576.292ZM587.464 148.76H609.472C613 148.76 615.716 148.2 617.62 147.08C619.524 145.904 620.476 144.056 620.476 141.536C620.476 139.688 619.916 138.344 618.796 137.504C617.676 136.664 616.192 136.16 614.344 135.992C612.496 135.768 610.508 135.656 608.38 135.656H587.464V148.76ZM587.464 126.668H607.204C610.732 126.668 613.448 126.164 615.352 125.156C617.256 124.092 618.208 122.3 618.208 119.78C618.208 117.26 617.256 115.496 615.352 114.488C613.448 113.424 610.928 112.892 607.792 112.892H587.464V126.668Z" fill="black"/>
</svg>
