<svg width="21" height="21" viewBox="0 0 21 21" fill="none" xmlns="http://www.w3.org/2000/svg">
<g clip-path="url(#clip0_329_529)">
<path d="M19.6977 4.4224C19.3892 4.55927 19.0719 4.67478 18.7477 4.76856C19.1315 4.33452 19.4241 3.8238 19.6028 3.26493C19.6428 3.13966 19.6013 3.00254 19.4983 2.92061C19.3955 2.83862 19.2526 2.8288 19.1394 2.8959C18.4509 3.30422 17.7082 3.59766 16.9294 3.76925C16.1449 3.00267 15.0793 2.56641 13.9778 2.56641C11.6527 2.56641 9.76099 4.45801 9.76099 6.78309C9.76099 6.96622 9.77258 7.14832 9.79552 7.3279C6.91024 7.07457 4.22785 5.65642 2.38585 3.39692C2.32021 3.31638 2.21908 3.27298 2.11554 3.28128C2.01194 3.28939 1.91886 3.34781 1.86652 3.4376C1.49293 4.07865 1.29542 4.81184 1.29542 5.55782C1.29542 6.57387 1.65818 7.53789 2.29898 8.29116C2.10414 8.22368 1.91506 8.13934 1.7346 8.03916C1.63772 7.98524 1.51948 7.98606 1.42323 8.04125C1.32691 8.09644 1.26653 8.19795 1.26399 8.3089C1.26355 8.32759 1.26355 8.34628 1.26355 8.36523C1.26355 9.88185 2.07981 11.2473 3.32776 11.9915C3.22055 11.9808 3.1134 11.9653 3.00695 11.9449C2.8972 11.9239 2.78435 11.9624 2.71034 12.0461C2.63621 12.1298 2.61168 12.2463 2.64584 12.3528C3.10776 13.795 4.29704 14.8557 5.73477 15.1791C4.54232 15.926 3.17867 16.3172 1.74714 16.3172C1.44845 16.3172 1.14804 16.2997 0.854028 16.2649C0.707974 16.2475 0.56832 16.3338 0.518579 16.4727C0.468838 16.6116 0.521557 16.7665 0.645814 16.8462C2.48483 18.0253 4.61126 18.6486 6.79511 18.6486C11.0883 18.6486 13.774 16.6241 15.2709 14.9258C17.1376 12.8081 18.2082 10.005 18.2082 7.23545C18.2082 7.11975 18.2065 7.0029 18.2029 6.88644C18.9394 6.33156 19.5735 5.66003 20.0895 4.88819C20.1678 4.77097 20.1593 4.61604 20.0685 4.50813C19.9779 4.40016 19.8267 4.36525 19.6977 4.4224Z" fill="#FF8C8C"/>
</g>
<defs>
<clipPath id="clip0_329_529">
<rect width="19.6429" height="19.6429" fill="white" transform="translate(0.5 0.785156)"/>
</clipPath>
</defs>
</svg>
