<svg width="42" height="38" viewBox="0 0 42 38" fill="none" xmlns="http://www.w3.org/2000/svg">
<path d="M37.667 8.58333V4.41667C37.667 2.11875 35.7982 0.25 33.5003 0.25H6.41699C2.97116 0.25 0.166992 3.05417 0.166992 6.5V31.5C0.166992 36.0854 3.90449 37.75 6.41699 37.75H37.667C39.9649 37.75 41.8337 35.8812 41.8337 33.5833V12.75C41.8337 10.4521 39.9649 8.58333 37.667 8.58333ZM33.5003 27.3333H29.3337V19H33.5003V27.3333ZM6.41699 8.58333C5.88058 8.55934 5.37409 8.32936 5.00298 7.94129C4.63188 7.55321 4.42477 7.03695 4.42477 6.5C4.42477 5.96305 4.63188 5.44679 5.00298 5.05871C5.37409 4.67064 5.88058 4.44066 6.41699 4.41667H33.5003V8.58333H6.41699Z" fill="#FF8C8C"/>
</svg>
