<svg width="43" height="38" viewBox="0 0 43 38" fill="none" xmlns="http://www.w3.org/2000/svg">
<path d="M0 33.9375C0 35.0067 0.42472 36.032 1.18073 36.788C1.93673 37.544 2.9621 37.9688 4.03125 37.9688H38.9688C40.0379 37.9688 41.0633 37.544 41.8193 36.788C42.5753 36.032 43 35.0067 43 33.9375V15.125C43 14.0558 42.5753 13.0305 41.8193 12.2745C41.0633 11.5185 40.0379 11.0938 38.9688 11.0938H4.03125C2.9621 11.0938 1.93673 11.5185 1.18073 12.2745C0.42472 13.0305 0 14.0558 0 15.125L0 33.9375ZM5.375 7.0625C5.375 7.41888 5.51657 7.76067 5.76858 8.01267C6.02058 8.26468 6.36237 8.40625 6.71875 8.40625H36.2812C36.6376 8.40625 36.9794 8.26468 37.2314 8.01267C37.4834 7.76067 37.625 7.41888 37.625 7.0625C37.625 6.70612 37.4834 6.36433 37.2314 6.11233C36.9794 5.86032 36.6376 5.71875 36.2812 5.71875H6.71875C6.36237 5.71875 6.02058 5.86032 5.76858 6.11233C5.51657 6.36433 5.375 6.70612 5.375 7.0625ZM10.75 1.6875C10.75 2.04388 10.8916 2.38567 11.1436 2.63767C11.3956 2.88968 11.7374 3.03125 12.0938 3.03125H30.9062C31.2626 3.03125 31.6044 2.88968 31.8564 2.63767C32.1084 2.38567 32.25 2.04388 32.25 1.6875C32.25 1.33112 32.1084 0.989327 31.8564 0.737325C31.6044 0.485323 31.2626 0.34375 30.9062 0.34375H12.0938C11.7374 0.34375 11.3956 0.485323 11.1436 0.737325C10.8916 0.989327 10.75 1.33112 10.75 1.6875Z" fill="#FF8C8C"/>
</svg>
