<svg width="45" height="41" viewBox="0 0 45 41" fill="none" xmlns="http://www.w3.org/2000/svg">
<path d="M41.729 5.0625L38.9373 3.89583V22.7083L43.9998 10.5C44.854 8.375 43.8748 5.9375 41.729 5.0625ZM1.10399 12.7708L11.4373 37.6667C11.7416 38.4241 12.2606 39.0761 12.9306 39.5425C13.6005 40.0089 14.3922 40.2693 15.2082 40.2917C15.7498 40.2917 16.3123 40.1875 16.854 39.9583L32.2082 33.6042C33.7706 32.9583 34.729 31.4167 34.7706 29.875C34.7915 29.3333 34.6873 28.7292 34.4998 28.1875L24.0832 3.29167C23.7887 2.52921 23.2715 1.87304 22.599 1.40858C21.9264 0.944109 21.1296 0.692849 20.3123 0.6875C19.7707 0.6875 19.229 0.8125 18.7082 1L3.37482 7.35417C2.35557 7.77155 1.5438 8.57662 1.11797 9.59236C0.692139 10.6081 0.687109 11.7514 1.10399 12.7708ZM34.7498 4.85417C34.7498 3.7491 34.3108 2.68929 33.5294 1.90789C32.748 1.12649 31.6882 0.6875 30.5832 0.6875H27.5623L34.7498 18.0625" fill="#FF8C8C"/>
</svg>
