<svg width="50" height="43" viewBox="0 0 50 43" fill="none" xmlns="http://www.w3.org/2000/svg">
<g clip-path="url(#clip0_271_515)">
<path d="M42.3438 9.75469V3.75C42.3438 2.92031 41.6735 2.25 40.8438 2.25H9.15628C8.32659 2.25 7.65628 2.92031 7.65628 3.75V9.75469C6.87347 9.80156 6.25003 10.4531 6.25003 11.25V17.4234C6.24703 18.558 6.47676 19.6812 6.92503 20.7234C7.12659 21.2016 7.37503 21.6516 7.65628 22.0781V38.25C7.65628 39.075 8.32659 39.75 9.15628 39.75H22V31.5H28V39.75H40.8438C41.6735 39.75 42.3438 39.0797 42.3438 38.25V22.0781C42.6295 21.6505 42.8743 21.1969 43.075 20.7234C43.5203 19.6781 43.75 18.5672 43.75 17.4234V11.25C43.75 10.4531 43.1266 9.80156 42.3438 9.75469ZM38.9688 36.3797H31V30C31 29.1703 30.3297 28.5 29.5 28.5H20.5C19.6703 28.5 19 29.1703 19 30V36.3797H11.0313V25.0266C11.1672 25.0922 11.3078 25.1578 11.4532 25.2141C12.4985 25.6547 13.6094 25.875 14.7532 25.875C15.8969 25.875 17.0032 25.6547 18.0532 25.2141C18.7 24.9422 19.3094 24.5953 19.8672 24.1781C19.8766 24.1734 19.886 24.1734 19.8953 24.1781C20.4549 24.5971 21.0642 24.9451 21.7094 25.2141C22.7547 25.6547 23.8657 25.875 25.0094 25.875C26.1532 25.875 27.2594 25.6547 28.3094 25.2141C28.9563 24.9422 29.5657 24.5953 30.1235 24.1781C30.1328 24.1734 30.1422 24.1734 30.1516 24.1781C30.7111 24.5971 31.3205 24.9451 31.9657 25.2141C33.011 25.6547 34.1219 25.875 35.2657 25.875C36.4094 25.875 37.5157 25.6547 38.5657 25.2141C38.7063 25.1531 38.8469 25.0922 38.9875 25.0266V36.3797H38.9688ZM38.9688 9.75H11.0313V5.625H38.9688V9.75Z" fill="#FF8C8C"/>
</g>
<defs>
<clipPath id="clip0_271_515">
<rect width="50" height="42.5697" fill="white"/>
</clipPath>
</defs>
</svg>
