<svg width="22" height="26" viewBox="0 0 22 26" fill="none" xmlns="http://www.w3.org/2000/svg">
<path d="M19.75 9.5H12.75V2.5H2.25V23.5H19.75V9.5ZM19.0255 7.75L14.5 3.2245V7.75H19.0255ZM1.375 0.75H14.5L21.5 7.75V24.375C21.5 24.6071 21.4078 24.8296 21.2437 24.9937C21.0796 25.1578 20.8571 25.25 20.625 25.25H1.375C1.14294 25.25 0.920376 25.1578 0.756282 24.9937C0.592187 24.8296 0.5 24.6071 0.5 24.375V1.625C0.5 1.39294 0.592187 1.17038 0.756282 1.00628C0.920376 0.842187 1.14294 0.75 1.375 0.75ZM5.75 13H16.25V14.75H5.75V13ZM5.75 7.75H10.125V9.5H5.75V7.75ZM5.75 18.25H16.25V20H5.75V18.25Z" fill="white"/>
</svg>
