<svg width="580" height="120" viewBox="0 0 580 120" fill="none" xmlns="http://www.w3.org/2000/svg">
<path d="M0 114H107.453C132.702 114 155.995 100.402 168.409 78.4156L171.136 73.5844C183.55 51.5976 206.843 38 232.092 38H299.5" stroke="#FF8C8C" stroke-width="12"/>
<path d="M342 38H387.953C413.202 38 436.495 51.5976 448.909 73.5844L451.636 78.4156C464.05 100.402 487.34 114 512.59 114H580" stroke="#FFE8D2" stroke-width="12"/>
<path d="M308.5 71.5C327.002 71.5 342 56.5015 342 38C342 19.4985 327.002 4.5 308.5 4.5C289.998 4.5 275 19.4985 275 38C275 56.5015 289.998 71.5 308.5 71.5Z" fill="#FF8C8C" stroke="#FEF2E7" stroke-width="9"/>
</svg>
