<svg width="85" height="63" viewBox="0 0 85 63" fill="none" xmlns="http://www.w3.org/2000/svg">
<g clip-path="url(#clip0_329_229)">
<path d="M36.1552 13.5902C36.1552 12.7406 35.4665 12.0518 34.6168 12.0518L20.7706 12.0518C19.921 12.0518 19.2322 12.7406 19.2322 13.5902C19.2322 14.4399 19.921 15.1287 20.7706 15.1287L33.0783 15.1287L33.0783 27.4364C33.0783 28.2861 33.7671 28.9749 34.6168 28.9749C35.4665 28.9749 36.1552 28.2861 36.1552 27.4364L36.1552 13.5902ZM-8.65433 59.0371L35.7046 14.6781L33.5289 12.5024L-10.83 56.8614L-8.65433 59.0371Z" fill="#FF8C8C"/>
<path d="M75.8994 35.8969C75.8994 35.0472 75.2106 34.3584 74.3609 34.3584L60.5148 34.3584C59.6651 34.3584 58.9763 35.0472 58.9763 35.8969C58.9763 36.7466 59.6651 37.4353 60.5148 37.4354L72.8225 37.4353L72.8225 49.743C72.8225 50.5927 73.5113 51.2815 74.3609 51.2815C75.2106 51.2815 75.8994 50.5927 75.8994 49.743L75.8994 35.8969ZM31.0898 81.3437L75.4488 36.9847L73.2731 34.809L28.9141 79.168L31.0898 81.3437Z" fill="#FF8C8C"/>
<path d="M74.8693 3.33319C74.8693 2.48353 74.1805 1.79473 73.3309 1.79473L59.4847 1.79473C58.635 1.79473 57.9463 2.48352 57.9463 3.33319C57.9463 4.18286 58.635 4.87165 59.4847 4.87165L71.7924 4.87165L71.7924 17.1793C71.7924 18.029 72.4812 18.7178 73.3309 18.7178C74.1805 18.7178 74.8693 18.029 74.8693 17.1793L74.8693 3.33319ZM16.0879 65.5879C27.977 53.6987 36.6446 44.3206 45.2952 34.9608C53.9441 25.6031 62.576 16.2637 74.4187 4.42105L72.243 2.24534C60.3539 14.1345 51.6863 23.5126 43.0356 32.8724C34.3868 42.2301 25.7548 51.5694 13.9121 63.4121L16.0879 65.5879Z" fill="#EC8065"/>
</g>
<defs>
<clipPath id="clip0_329_229">
<rect width="85" height="63" fill="white"/>
</clipPath>
</defs>
</svg>
